<?xml version="1.0" standalone="no"?>
<!DOCTYPE svg PUBLIC "-//W3C//DTD SVG 20010904//EN"
 "http://www.w3.org/TR/2001/REC-SVG-20010904/DTD/svg10.dtd">
<svg version="1.0" xmlns="http://www.w3.org/2000/svg"
 width="700.000000pt" height="700.000000pt" viewBox="0 0 700.000000 700.000000"
 preserveAspectRatio="xMidYMid meet">
<metadata>
Created by potrace 1.11, written by Peter Selinger 2001-2013
</metadata>
<g transform="translate(0.000000,700.000000) scale(0.100000,-0.100000)"
fill="#000000" stroke="none">
<path d="M3305 6934 c-33 -37 -67 -75 -76 -83 -8 -9 -51 -59 -95 -111 -43 -52
-82 -97 -85 -100 -3 -3 -53 -68 -110 -145 -154 -205 -322 -458 -390 -585 -18
-36 -36 -67 -39 -70 -14 -13 -158 -298 -210 -415 -51 -113 -63 -140 -68 -148
-4 -9 69 36 98 59 49 39 265 147 400 199 79 31 275 87 345 100 17 2 41 7 55
10 13 2 40 7 60 9 19 3 55 8 80 12 81 11 353 10 460 -2 120 -14 179 -22 189
-28 3 -3 25 -7 47 -10 130 -20 365 -105 543 -197 l114 -59 146 40 c222 60 426
107 631 145 254 47 328 58 530 81 25 3 56 7 70 9 14 2 65 6 113 10 89 6 127
12 133 18 2 2 -4 12 -14 23 -9 11 -39 46 -67 79 -67 81 -132 150 -245 260
-303 295 -635 515 -1045 692 -136 59 -386 144 -500 169 -11 3 -29 7 -40 9 -11
3 -29 7 -40 9 -97 23 -177 37 -270 50 -60 8 -128 18 -150 21 -22 3 -146 8
-275 11 l-235 5 -60 -67z"/>
<path d="M2830 6934 c-241 -51 -429 -106 -620 -181 -134 -53 -358 -160 -449
-215 -34 -21 -65 -38 -67 -38 -10 0 -221 -143 -312 -212 -144 -109 -236 -190
-367 -323 -168 -170 -197 -204 -413 -495 -46 -62 -168 -272 -232 -399 -77
-154 -164 -368 -211 -518 -64 -208 -111 -429 -134 -623 -3 -30 -8 -71 -11 -90
-2 -19 -6 -84 -9 -143 l-4 -109 47 7 c26 3 54 8 62 10 8 2 38 6 65 10 28 3 75
10 105 15 30 5 132 21 225 34 94 14 188 28 210 31 22 3 51 8 65 10 14 3 43 7
65 10 22 3 51 8 65 10 14 3 43 7 65 10 22 3 81 12 130 20 50 8 108 16 130 19
120 17 112 12 119 69 4 29 18 97 32 152 14 55 27 110 30 122 4 22 52 154 83
228 27 66 121 247 152 293 45 66 63 107 104 232 53 161 154 416 241 606 71
158 206 425 249 494 12 19 37 62 55 95 78 142 382 596 461 688 34 39 149 189
149 193 0 5 -2 5 -80 -12z"/>
<path d="M6375 5380 c-38 -4 -113 -10 -165 -14 -52 -4 -111 -9 -130 -11 -19
-2 -62 -6 -95 -10 -33 -3 -69 -8 -80 -10 -11 -2 -42 -7 -70 -10 -27 -3 -63 -8
-80 -10 -16 -3 -46 -7 -65 -9 -130 -15 -519 -94 -723 -147 l-39 -10 94 -92
c468 -459 704 -1105 645 -1762 -14 -155 -64 -382 -112 -509 -14 -38 -24 -70
-23 -71 2 -1 71 -38 153 -80 83 -43 169 -88 193 -101 23 -13 63 -36 90 -50
104 -58 251 -144 312 -183 36 -23 72 -44 80 -48 8 -4 82 -51 164 -105 82 -54
153 -98 157 -98 10 0 102 229 142 355 53 164 108 385 123 490 3 22 7 47 9 55
2 8 7 42 11 75 3 33 8 68 10 77 28 152 21 706 -11 875 -3 15 -10 60 -16 98
-46 312 -167 682 -325 998 -54 108 -173 320 -178 316 0 -1 -32 -5 -71 -9z"/>
<path d="M3373 4849 c-475 -44 -899 -381 -1056 -839 -27 -79 -30 -89 -52 -210
-15 -83 -18 -295 -5 -356 5 -21 10 -55 13 -74 21 -155 114 -366 226 -515 158
-207 357 -350 612 -438 202 -70 468 -80 684 -26 312 79 576 264 746 524 150
230 211 443 204 715 -4 160 -9 198 -31 280 -51 184 -123 330 -233 469 -201
256 -492 422 -816 466 -73 10 -209 12 -292 4z"/>
<path d="M5351 2354 c-122 -199 -305 -408 -486 -553 -276 -222 -676 -401 -996
-446 l-47 -7 -12 -81 c-6 -45 -13 -93 -15 -107 -2 -14 -6 -47 -10 -75 -7 -70
-16 -136 -20 -164 -4 -22 -9 -61 -20 -146 -23 -175 -47 -355 -50 -375 -2 -14
-6 -47 -10 -75 -3 -27 -7 -59 -9 -70 -2 -11 -7 -45 -10 -75 -4 -30 -10 -81
-15 -113 -4 -32 -5 -60 -1 -62 9 -5 226 10 278 20 9 1 42 6 73 9 31 4 67 9 80
11 13 3 36 7 52 10 972 179 1847 781 2354 1621 l61 101 -75 49 c-209 137 -269
175 -283 181 -8 4 -49 28 -90 53 -84 52 -266 156 -380 218 -93 49 -311 162
-314 162 -2 0 -26 -38 -55 -86z"/>
</g>
</svg>
