<?xml version="1.0" encoding="utf-8"?>
<!-- Generator: Adobe Illustrator 20.1.0, SVG Export Plug-In . SVG Version: 6.00 Build 0)  -->
<svg version="1.1" id="Layer_1" xmlns="http://www.w3.org/2000/svg" xmlns:xlink="http://www.w3.org/1999/xlink" x="0px" y="0px"
	 viewBox="0 0 768.1 768" style="enable-background:new 0 0 768.1 768;" xml:space="preserve">
<g>
	<path id="_Path_" d="M319.7,5.9C138.7,36,4.5,190.5,0,373.9l147.5-22.2c5-36.6,18.4-71.6,39.2-102.2
		C215.1,160.6,260.3,77.9,319.7,5.9z"/>
	<path id="_Path_2" d="M506.6,179.3c58.3-17.6,118.3-28.8,179-33.2C610,48.8,491.7-5.6,368.7,0.5C316,55.5,273.8,119.8,244.4,190.1
		C321.9,134.7,424.8,130.5,506.6,179.3z"/>
	<path id="_Path_3" d="M606.9,470.5c43.9,21.6,86.3,46.2,126.8,73.7c53.8-118.6,44.1-256.4-25.7-366.3
		c-56.6,2.9-112.7,11.6-167.4,26c3.8,3.3,7.6,6.5,11.1,10C619.6,280.7,641.3,381.6,606.9,470.5z"/>
	<path id="_Path_4" d="M592.8,500.2c-35.7,65.1-100,109.6-173.6,120.1L399.9,768c132.8-5.3,253.4-79,318.7-194.8
		C678.5,545.9,636.4,521.5,592.8,500.2z"/>
	<g id="_Group_">
		<circle cx="384.1" cy="372.6" r="137.4"/>
	</g>
</g>
</svg>
